<svg width="34" height="40" viewBox="0 0 34 40" fill="none" xmlns="http://www.w3.org/2000/svg">
<path d="M0 11.1453V14.1836C0 14.8917 0.374347 15.5469 0.984267 15.9065L28.4004 32.0699C29.0058 32.4269 29.7542 32.4398 30.3717 32.104L32.9556 30.6985C33.5993 30.3484 34 29.6744 34 28.9416V25.7283C34 25.0166 33.6218 24.3585 33.0068 24.0002L5.45765 7.94945C4.82793 7.58256 4.04848 7.58726 3.42323 7.96172L0.972405 9.4295C0.369202 9.79075 0 10.4422 0 11.1453Z" fill="#2F1CCC"/>
<path d="M0 28.9806V23.9415C0 22.396 1.67816 21.4345 3.01145 22.2161L22.2218 33.4775C23.5417 34.2512 23.5394 36.1601 22.2177 36.9307L17.9599 39.4131C17.3378 39.7758 16.5687 39.7761 15.9463 39.4138L0.993773 30.709C0.378482 30.3508 0 29.6925 0 28.9806Z" fill="#2F1CCC"/>
<path d="M15.9342 0.614002L11.802 3.10364C10.5026 3.88653 10.5138 5.77442 11.8223 6.5419L30.9882 17.7828C32.3215 18.5648 34 17.6033 34 16.0576V11.1567C34 10.4474 33.6244 9.79127 33.0129 9.4321L17.9792 0.602538C17.347 0.231214 16.5622 0.235613 15.9342 0.614002Z" fill="#2F1CCC"/>
</svg>
